<?xml version="1.0" encoding="UTF-8" standalone="no"?>
<svg
   id="logo-51"
   width="39.999962"
   height="39.999973"
   viewBox="0 0 39.999962 39.999973"
   fill="none"
   version="1.1"
   sodipodi:docname="logo.svg"
   inkscape:version="1.2.1 (9c6d41e410, 2022-07-14)"
   xmlns:inkscape="http://www.inkscape.org/namespaces/inkscape"
   xmlns:sodipodi="http://sodipodi.sourceforge.net/DTD/sodipodi-0.dtd"
   xmlns="http://www.w3.org/2000/svg"
   xmlns:svg="http://www.w3.org/2000/svg">
  <defs
     id="defs107" />
  <sodipodi:namedview
     id="namedview105"
     pagecolor="#ffffff"
     bordercolor="#000000"
     borderopacity="0.25"
     inkscape:showpageshadow="2"
     inkscape:pageopacity="0.0"
     inkscape:pagecheckerboard="0"
     inkscape:deskcolor="#d1d1d1"
     showgrid="false"
     inkscape:zoom="8.245509"
     inkscape:cx="83.378722"
     inkscape:cy="20.314089"
     inkscape:window-width="1920"
     inkscape:window-height="991"
     inkscape:window-x="-9"
     inkscape:window-y="-9"
     inkscape:window-maximized="1"
     inkscape:current-layer="logo-51" />
  <path
     fill-rule="evenodd"
     clip-rule="evenodd"
     d="m 8.55273,3.597865 c -1.43066,1.00036 -2.72436,2.18311 -3.84741,3.51453 4.5893,-0.42607 10.41984,0.26965 17.18904,3.65428 7.2286,3.6142 13.0494,3.7364 17.1004,2.955 -0.3676,-1.1129 -0.8304,-2.1825 -1.3785,-3.1993 -4.6373,0.4891 -10.5823,-0.1583 -17.5107,-3.6224 -4.3996,-2.1998 -8.2778,-3.10597 -11.55283,-3.30211 z m 26.35463,3.06878 C 31.24526,2.574995 25.92336,0 19.99996,0 c -1.7395,0 -3.4273,0.222107 -5.0363,0.63948 2.1792,0.594605 4.4942,1.464505 6.9307,2.682785 5.0726,2.53626 9.452,3.35289 13.013,3.34438 z m 4.9535,10.96143 c -4.894,0.9664 -11.6521,0.7679 -19.7553,-3.2837 -7.5756,-3.7878 -13.60513,-3.7401 -17.67166,-2.8364 -0.2099,0.0466 -0.41486,0.0956 -0.61487,0.1466 -0.53241,1.1579 -0.957396,2.3755 -1.262328,3.6399 0.325684,-0.087 0.662228,-0.1697 1.009458,-0.2469 4.93341,-1.0963 11.9039,-1.0487 20.3282,3.1635 7.5757,3.7878 13.6052,3.7401 17.6718,2.8364 0.1393,-0.0309 0.2766,-0.0629 0.4116,-0.0959 0.0148,-0.3153 0.0222,-0.6326 0.0222,-0.9516 0,-0.8025 -0.0472,-1.594 -0.1391,-2.3719 z m -0.5361,7.5442 c -4.8465,0.8473 -11.4078,0.5221 -19.2192,-3.3835 -7.5756,-3.7878 -13.60513,-3.7401 -17.67166,-2.8364 -0.90265,0.2005 -1.714661,0.4448 -2.43097,0.7027 C 9.77e-4,19.769775 0,19.884775 0,19.999975 c 0,11.0457 8.95429,20 19.99996,20 9.2571,0 17.0453,-6.2891 19.3248,-14.8277 z"
     class="ccustom"
     fill="#7f57f1"
     id="path102" />
</svg>
